<?xml version="1.0" encoding="iso-8859-1"?>
<!-- Generator: Adobe Illustrator 19.0.0, SVG Export Plug-In . SVG Version: 6.00 Build 0)  -->
<svg version="1.1" id="Capa_1" xmlns="http://www.w3.org/2000/svg" xmlns:xlink="http://www.w3.org/1999/xlink" x="0px" y="0px"
	 viewBox="0 0 409.595 409.595" style="enable-background:new 0 0 409.595 409.595;" xml:space="preserve">
<rect x="119.603" y="44.488" style="fill:#3EA69B;" width="289.992" height="284.467"/>
<rect y="98.499" style="fill:#64798A;" width="355.584" height="284.467"/>
<polygon style="fill:#2F4859;" points="111.873,69.389 96.978,26.629 0,26.629 0,69.389 0,70.269 0,122.728 355.586,122.728 
	355.586,69.389 "/>
<rect x="152.553" y="245.682" transform="matrix(0.615 0.7886 -0.7886 0.615 267.4765 -30.129)" style="fill:#DC8744;" width="24.074" height="26.296"/>
<path style="fill:#FCD462;" d="M50.851,347.548L50.851,347.548c7.793,9.993,25.285,8.371,38.049-2.733l74.78-65.749l-18.92-24.261
	l-81.987,56.508C48.893,320.985,43.058,337.556,50.851,347.548z"/>
<g>
	<polygon style="fill:#31978C;" points="122.43,270.367 143.146,296.93 155.596,286.098 135.969,260.931 	"/>
	<polygon style="fill:#31978C;" points="94.999,289.486 117.92,318.877 133.077,305.689 111.482,277.998 	"/>
</g>
<g transform="matrix(0.78856 -0.61496 0.61496 0.78856 -20.48 44.37)">
	
		<ellipse transform="matrix(-0.7886 -0.615 0.615 -0.7886 -14.9671 567.7972)" style="fill:#3EA69B;" cx="90.129" cy="286.472" rx="74.24" ry="74.24"/>
	
		<ellipse transform="matrix(-0.7886 -0.615 0.615 -0.7886 -14.9671 567.7971)" style="fill:#D5D6DB;" cx="90.129" cy="286.472" rx="51.61" ry="51.61"/>
</g>
<g>
</g>
<g>
</g>
<g>
</g>
<g>
</g>
<g>
</g>
<g>
</g>
<g>
</g>
<g>
</g>
<g>
</g>
<g>
</g>
<g>
</g>
<g>
</g>
<g>
</g>
<g>
</g>
<g>
</g>
</svg>
