<?xml version="1.0" encoding="iso-8859-1"?>
<!-- Generator: Adobe Illustrator 19.0.0, SVG Export Plug-In . SVG Version: 6.00 Build 0)  -->
<svg version="1.1" id="Capa_1" xmlns="http://www.w3.org/2000/svg" xmlns:xlink="http://www.w3.org/1999/xlink" x="0px" y="0px"
	 viewBox="0 0 409.601 409.601" style="enable-background:new 0 0 409.601 409.601;" xml:space="preserve">
<rect x="208.683" y="195.238" transform="matrix(-0.7935 0.6086 -0.6086 -0.7935 541.5091 249.7656)" style="fill:#DC8744;" width="39.393" height="43.034"/>
<path style="fill:#D15241;" d="M372.023,404.036L372.023,404.036c-16.455,12.62-43.493,2.852-59.139-19.987l-91.385-134.911
	l39.951-30.64l106.603,123.24C386.054,362.769,388.477,391.416,372.023,404.036z"/>
<g>
	<polygon style="fill:#D5D6DB;" points="290.412,252.335 246.67,285.883 231.408,263.603 272.851,231.818 	"/>
	<polygon style="fill:#D5D6DB;" points="325.992,293.905 277.593,331.024 259.012,303.9 304.613,268.927 	"/>
</g>
<g transform="matrix(0.7935 -0.60857 0.60857 0.7935 -12.492 30.646)">
	
		<ellipse transform="matrix(-0.7935 -0.6086 0.6086 -0.7935 25.9594 348.3689)" style="fill:#64798A;" cx="72.084" cy="169.78" rx="121.492" ry="121.492"/>
	
		<ellipse transform="matrix(-0.7935 -0.6086 0.6086 -0.7935 25.9594 348.3689)" style="fill:#D5D6DB;" cx="72.084" cy="169.78" rx="84.46" ry="84.46"/>
</g>
<path style="fill:#FFFFFF;" d="M210.811,139.911c-3.971,0-7.265-3.135-7.433-7.142c-1.135-27.324-9.265-46.422-24.175-56.749
	c-24.611-17.055-60.64-5.491-60.996-5.375c-3.949,1.28-8.116-0.836-9.404-4.735c-1.295-3.898,0.815-8.102,4.713-9.404
	c1.76-0.582,43.302-14.036,74.087,7.215c19.004,13.12,29.316,36.145,30.655,68.436c0.175,4.109-3.025,7.578-7.135,7.745
	C211.022,139.911,210.92,139.911,210.811,139.911z"/>
<g>
</g>
<g>
</g>
<g>
</g>
<g>
</g>
<g>
</g>
<g>
</g>
<g>
</g>
<g>
</g>
<g>
</g>
<g>
</g>
<g>
</g>
<g>
</g>
<g>
</g>
<g>
</g>
<g>
</g>
</svg>
